<?xml version="1.0" standalone="no"?>
<!DOCTYPE svg PUBLIC "-//W3C//DTD SVG 20010904//EN"
 "http://www.w3.org/TR/2001/REC-SVG-20010904/DTD/svg10.dtd">
<svg version="1.0" xmlns="http://www.w3.org/2000/svg"
 width="400.000000pt" height="323.000000pt" viewBox="0 0 400.000000 323.000000"
 preserveAspectRatio="xMidYMid meet">
<metadata>
Created by potrace 1.15, written by Peter Selinger 2001-2017
</metadata>
<g transform="translate(0.000000,323.000000) scale(0.100000,-0.100000)"
fill="#000000" stroke="none">
<path d="M1376 2664 c-111 -35 -170 -98 -211 -226 -15 -45 -18 -112 -22 -427
-5 -396 -8 -417 -55 -461 -12 -11 -39 -25 -60 -31 l-38 -10 0 -128 0 -128 42
-13 c45 -13 84 -47 99 -86 4 -13 9 -171 10 -352 2 -413 10 -484 69 -587 58
-101 151 -145 308 -145 l102 0 0 110 0 110 385 0 384 0 3 -107 3 -108 89 -3
c93 -3 175 14 225 46 56 36 105 108 133 191 7 24 13 170 17 421 6 384 6 385
30 427 19 33 36 47 78 65 l54 22 -3 125 -3 125 -44 13 c-104 30 -104 32 -112
488 -6 379 -11 437 -45 505 -63 127 -163 180 -341 180 l-83 0 0 -120 0 -120
60 0 c73 0 127 -21 139 -53 5 -14 11 -166 12 -338 4 -466 11 -522 79 -613 l48
-64 -39 -38 c-70 -68 -71 -80 -78 -531 -3 -221 -9 -404 -12 -408 -4 -3 -9 16
-13 43 -14 104 -79 195 -175 243 -24 12 -39 24 -34 28 14 9 43 71 43 91 0 10
11 25 24 34 33 21 40 50 23 85 -16 32 -17 22 28 216 8 33 23 101 33 150 11 50
22 99 25 110 4 11 13 78 22 148 11 100 12 145 4 205 -27 197 -133 382 -293
511 -42 34 -122 68 -193 82 -55 10 -66 9 -88 -5 -14 -9 -25 -23 -25 -32 0 -10
-19 0 -60 31 -60 47 -116 75 -146 75 -15 0 -16 -12 -12 -105 4 -96 3 -106 -16
-123 -25 -23 -45 -47 -70 -87 -11 -17 -58 -75 -106 -130 -127 -147 -133 -158
-125 -207 10 -58 58 -108 111 -115 37 -5 45 -2 82 32 36 32 51 38 111 46 86
10 127 27 168 68 17 17 34 31 38 31 10 0 -6 -90 -21 -119 -8 -14 -14 -30 -14
-34 0 -27 -112 -170 -240 -307 -77 -83 -116 -147 -141 -233 -21 -74 -22 -80
-6 -135 14 -50 14 -60 1 -79 -17 -26 -2 -69 27 -78 10 -3 21 -20 24 -38 4 -18
16 -46 26 -63 23 -38 24 -44 2 -44 -20 0 -78 -42 -120 -88 -40 -43 -73 -127
-74 -190 l-2 -47 -7 40 c-3 22 -7 186 -9 365 -2 386 -8 441 -55 514 -19 30
-39 57 -45 60 -17 11 -13 35 10 54 23 19 57 80 70 125 4 15 10 175 14 355 8
474 13 523 58 538 12 4 54 10 92 13 l70 6 0 120 0 120 -95 2 c-62 1 -112 -3
-144 -13z m472 -331 c15 -9 48 -34 73 -55 56 -45 73 -47 91 -10 13 24 18 27
65 26 48 -2 148 -39 179 -68 7 -6 26 -22 44 -35 68 -53 162 -198 208 -323 24
-67 26 -85 26 -218 -1 -116 -6 -169 -27 -265 -30 -143 -85 -380 -95 -415 l-7
-25 -407 -3 -407 -2 -12 42 c-6 24 -9 66 -6 94 5 52 50 153 84 189 10 11 29
34 42 50 12 17 48 57 79 90 86 91 153 186 193 271 33 70 34 184 2 216 l-23 22
-21 -20 c-11 -12 -22 -27 -23 -35 -11 -56 -45 -75 -164 -94 -74 -12 -91 -18
-113 -43 -14 -16 -33 -31 -42 -35 -36 -14 -83 23 -101 78 -7 23 2 36 74 119
25 29 63 74 85 100 22 26 48 57 58 69 9 11 17 24 17 29 0 5 23 33 51 63 50 52
50 54 40 92 -14 49 -14 113 -1 113 6 0 23 -8 38 -17z m585 -1448 c-5 -16 -855
-14 -861 3 -3 10 85 12 430 10 282 -2 432 -6 431 -13z m-58 -77 c-12 -44 -30
-70 -57 -84 -21 -11 -87 -14 -322 -14 l-295 0 -34 34 c-19 19 -37 46 -39 60
l-5 26 379 0 379 0 -6 -22z m14 -167 c81 -43 151 -132 151 -192 0 -18 -18 -19
-541 -19 l-541 0 7 28 c13 53 38 93 84 133 85 76 98 78 476 76 316 -2 321 -2
364 -26z m161 -281 l0 -30 -545 0 -545 0 0 30 0 30 545 0 545 0 0 -30z"/>
</g>
</svg>
